<?xml version="1.0" ?><svg fill="none" height="512" viewBox="0 0 512 512" width="512" xmlns="http://www.w3.org/2000/svg"><path d="M432 60H80C64.087 60 48.8258 66.3214 37.5736 77.5736C26.3214 88.8258 20 104.087 20 120V392C20 407.913 26.3214 423.174 37.5736 434.426C48.8258 445.679 64.087 452 80 452H432C447.913 452 463.174 445.679 474.426 434.426C485.679 423.174 492 407.913 492 392V120C492 104.087 485.679 88.8258 474.426 77.5736C463.174 66.3214 447.913 60 432 60ZM400.91 153C410.193 152.996 419.268 155.745 426.988 160.899C434.709 166.054 440.727 173.382 444.282 181.957C447.837 190.532 448.769 199.968 446.961 209.073C445.152 218.178 440.684 226.542 434.122 233.107C427.559 239.673 419.197 244.144 410.093 245.957C400.989 247.769 391.552 246.841 382.975 243.29C374.399 239.738 367.068 233.723 361.911 226.005C356.753 218.287 354 209.213 354 199.93C354 187.487 358.942 175.553 367.738 166.753C376.535 157.952 388.467 153.005 400.91 153ZM280 359H60C54.6957 359 49.6086 356.893 45.8578 353.142C42.1071 349.391 40 344.304 40 339C40 333.696 42.1071 328.609 45.8578 324.858C49.6086 321.107 54.6957 319 60 319H280C285.304 319 290.391 321.107 294.142 324.858C297.893 328.609 300 333.696 300 339C300 344.304 297.893 349.391 294.142 353.142C290.391 356.893 285.304 359 280 359ZM280 276H60C54.6957 276 49.6086 273.893 45.8578 270.142C42.1071 266.391 40 261.304 40 256C40 250.696 42.1071 245.609 45.8578 241.858C49.6086 238.107 54.6957 236 60 236H280C285.304 236 290.391 238.107 294.142 241.858C297.893 245.609 300 250.696 300 256C300 261.304 297.893 266.391 294.142 270.142C290.391 273.893 285.304 276 280 276V276ZM280 193H60C54.6957 193 49.6086 190.893 45.8578 187.142C42.1071 183.391 40 178.304 40 173C40 167.696 42.1071 162.609 45.8578 158.858C49.6086 155.107 54.6957 153 60 153H280C285.304 153 290.391 155.107 294.142 158.858C297.893 162.609 300 167.696 300 173C300 178.304 297.893 183.391 294.142 187.142C290.391 190.893 285.304 193 280 193V193ZM472 306.43C472 341.35 434 360.87 398 358.85H395.34C358.51 357.68 317.18 337.85 317.18 302.11C317.049 290.671 321.378 279.631 329.25 271.33C337.263 262.871 348.149 257.713 359.77 256.87C382.717 255.43 405.733 255.43 428.68 256.87C440.475 257.715 451.53 262.932 459.68 271.5C467.695 279.926 472.114 291.141 472 302.77V306.43Z" fill="black"/></svg>